<svg version="1.1" id="Layer_1" xmlns="http://www.w3.org/2000/svg" xmlns:xlink="http://www.w3.org/1999/xlink" x="0px" y="0px" width="75" height="65" viewBox="0 0 815 758" style="enable-background:new 0 0 815 758;" xml:space="preserve">
    <g transform="translate(0.000000,758.000000) scale(0.100000,-0.100000)">
        <path fill="#f04f38" d="M1188,7332c-190-125-351-236-356-247c-6-13-4-171,6-448l16-427h106c135,0,136-1,145-130c9-131,21-168,64-211c45-46,100-62,204-61c101,0,159,26,189,85c26,52,26,51-8,917c-14,366-24,684-22,708c2,23,3,42,3,41C1535,7559,1379,7457,1188,7332z"></path>
        <path fill="#f04f38"  d="M5640,7423l-205-136l-239-380c-226-358-238-381-225-402c8-12,172-230,364-484c212-280,351-473,353-489c6-47-14-52-213-52c-172,0-184,1-215,23c-20,13-160,193-334,427c-321,432-346,458-346,368c0-24,7-203,15-397c8-195,12-365,9-377c-9-36-46-44-194-44c-145,0-182,7-198,37c-6,10-27,470-48,1023c-20,553-38,1006-39,1008c-3,3-353-223-368-238c-5-4,4-320,19-701c20-532,24-709,16-757c-42-251-292-392-692-392c-282,0-484,65-609,195c-73,76-107,145-121,246c-8,60-53,1176-63,1556c-1,51-3,93-5,93s-354-229-358-234c-1,0,10-314,25-696c14-382,23-724,19-760c-20-197-145-325-365-377c-110-26-386-26-496,0c-106,25-222,85-284,146c-99,100-130,194-135,412c-2,88-7,135-13,131c-51-28-673-438-682-450C3,5709,0,5121,0,2857C0,1056,4,10,10,12c5,2,1827,1231,4049,2733l4041,2730l-145,5c-111,4-148,9-158,20c-18,19-645,1047-697,1142c-22,40-40,66-40,58s9-238,20-510s20-536,20-587c0-123,0-123-177-123c-138,0-175,7-191,37c-6,10-27,470-48,1023s-39,1006-40,1008s-88-53-193-122c-128-84-191-131-191-143c-1-10,14-411,32-890c31-832,32-874,15-890c-15-15-40-19-159-21c-166-4-204,1-219,30c-12,23-93,1998-83,2031c3,9,4,17,2,16C5846,7559,5753,7497,5640,7423z M1240,4785c52-118,95-214,96-212c1,1,39,92,84,202c46,110,88,206,93,213c15,19,133,16,141-4c3-9,6-165,6-349c0-275-2-335-14-344c-9-7-38-11-73-9l-58,3l-3,190l-3,190l-50-125c-28-69-55-131-61-137c-6-8-34-13-70-13c-68,0-51-22-134,180l-43,105l-3-195l-3-195h-65h-65l-3,345c-1,190,0,351,3,357c3,9,26,13,68,13h64L1240,4785z M2580,4940v-60h-130h-130v-80v-80h113c75,0,117-4,125-12c7-7,12-30,12-53s-5-46-12-53c-8-8-50-12-125-12h-113v-90v-90h130c143,0,150-3,150-67c0-63-4-64-225-61l-200,3l-3,358l-2,357h205h205V4940z M3500,4970c24-14,55-40,67-59c22-33,23-41,23-270c0-234,0-237-24-272c-16-23-43-44-78-60c-49-21-66-23-228-24h-175l-3,358l-2,359l187-4C3446,4995,3457,4994,3500,4970z M4244,4984c11-28,7-664-4-685c-9-15-22-19-68-19c-32,0-63,5-70,12c-9,9-12,99-12,344c0,183,3,339,6,348c5,12,21,16,74,16S4239,4996,4244,4984z M5157,4646c56-191,100-352,97-357c-8-14-130-11-142,4c-6,6-18,42-28,80l-18,67h-92h-93l-16-57c-29-105-27-103-95-103c-46,0-62,4-67,16c-6,16,182,669,200,692c7,9,32,12,81,10l70-3L5157,4646z"></path>
        <path fill="#f04f38"  d="M3230,4644v-236l84,3c129,6,126,1,126,229c0,138-3,191-13,204c-15,20-77,35-149,36h-48V4644z"></path>
        <path fill="#f04f38"  d="M4944,4696l-31-136h59c32,0,58,3,58,8c-1,4-13,65-29,136l-27,129L4944,4696z"></path>
        <path fill="#f04f38"  d="M7450,7390c-140-92-254-173-253-178c2-6,107-181,234-389s251-416,276-462l44-84l-6,89c-13,200-46,1175-40,1184c3,5,5,10,3,9C7706,7559,7590,7483,7450,7390z"></path>
        <path fill="#f04f38"  d="M3030,7354c-292-192-295-194-298-231c-2-20,6-282,17-582c17-427,25-555,37-588c17-47,67-95,122-119c54-23,173-33,255-23c155,19,227,86,227,210c1,120-54,1529-60,1528C3327,7549,3192,7461,3030,7354z"></path>
        <path fill="#f04f38"  d="M4852,7342l-303-197l6-215c3-118,8-230,11-247c11-74,32-48,304,395c145,235,270,435,278,445c8,9,13,17,11,17S5019,7451,4852,7342z"></path>
    </g>
</svg>